<svg width="47" height="64" viewBox="0 0 47 64" fill="none" xmlns="http://www.w3.org/2000/svg">
<g clip-path="url(#clip0_406_247)">
<path d="M23.4073 3.55566C10.5004 3.55566 0 13.5776 0 25.8964C0 33.0008 6.24254 43.5852 9.96355 49.262C12.4118 52.9968 15.0427 56.5513 17.3714 59.2705C21.1093 63.6349 22.4471 64.0001 23.4075 64.0001C24.3823 64.0001 25.6454 63.6346 29.3716 59.2679C31.7055 56.5324 34.3377 52.98 36.7834 49.2648C40.53 43.5741 46.8148 32.9708 46.8148 25.8962C46.8148 13.5776 36.3144 3.55566 23.4073 3.55566Z" fill="#E34600"/>
<path d="M23.1114 26.0001L25.1855 37.926H21.0374L23.1114 26.0001ZM22.7459 25.8471L15.7796 35.7482L12.8448 32.8134L22.7459 25.8471ZM23.477 25.8471L33.3781 32.8134L30.4433 35.7482L23.477 25.8471ZM10.667 23.4075L22.5929 25.4816L10.667 27.5556V23.4075ZM35.5559 23.4075V27.5556L23.63 25.4816L35.5559 23.4075ZM30.4433 15.2149L33.3781 18.1497L23.477 25.116L30.4433 15.2149ZM15.7796 15.2149L22.7459 25.1134L12.8448 18.1497L15.7796 15.2149ZM25.1855 13.0371L23.1114 24.963L21.0374 13.0371H25.1855Z" fill="white"/>
</g>
<defs>
<clipPath id="clip0_406_247">
<rect width="46.8148" height="64" fill="white"/>
</clipPath>
</defs>
</svg>
