<svg width="15" height="13" viewBox="0 0 15 13" fill="none" xmlns="http://www.w3.org/2000/svg">
<path d="M14.6066 1.00057C14.3443 0.73826 14.029 0.607178 13.6608 0.607178H1.33932C0.971021 0.607178 0.655674 0.73826 0.393392 1.00057C0.131082 1.26282 0 1.57814 0 1.94649V11.0537C0 11.4221 0.131082 11.7372 0.393392 11.9994C0.655644 12.2619 0.970991 12.3929 1.33932 12.3929H13.6608C14.029 12.3929 14.3443 12.2619 14.6066 11.9994C14.869 11.7372 15 11.4219 15 11.0537V1.94649C15 1.57814 14.869 1.26282 14.6066 1.00057ZM13.9285 11.0535C13.9285 11.1261 13.902 11.1888 13.8489 11.2418C13.7958 11.2949 13.7331 11.3212 13.6607 11.3212H1.33923C1.2667 11.3212 1.2039 11.2949 1.15092 11.2418C1.09788 11.1888 1.07141 11.1261 1.07141 11.0535V4.62498C1.24995 4.82587 1.44249 5.01004 1.64898 5.17742C3.14456 6.32696 4.33315 7.26998 5.21487 8.00663C5.49946 8.24663 5.73107 8.43353 5.90962 8.56749C6.08817 8.7015 6.32952 8.83677 6.63361 8.97343C6.93773 9.11028 7.22376 9.17839 7.49161 9.17839H7.50002H7.50835C7.77614 9.17839 8.06229 9.11028 8.36629 8.97343C8.67049 8.83677 8.91199 8.70153 9.09048 8.56749C9.269 8.43353 9.50064 8.24663 9.78526 8.00663C10.667 7.26998 11.8554 6.32696 13.3511 5.17742C13.5576 5.01007 13.7502 4.82587 13.9285 4.62498V11.0535ZM13.9285 2.16406V2.25612C13.9285 2.58534 13.7988 2.95228 13.5394 3.35682C13.2799 3.76135 12.9994 4.08367 12.6982 4.32356C11.6211 5.17191 10.5024 6.05629 9.34141 6.97703C9.30799 7.00491 9.21024 7.08718 9.04835 7.22383C8.88669 7.36069 8.75827 7.46545 8.66337 7.53789C8.56835 7.61054 8.44433 7.69841 8.29094 7.80155C8.13743 7.90469 7.99655 7.98156 7.86823 8.03173C7.7399 8.08177 7.6199 8.10684 7.50835 8.10684H7.50002H7.49161C7.38002 8.10684 7.26014 8.08177 7.13173 8.03173C7.0034 7.98156 6.86244 7.90469 6.70904 7.80155C6.55568 7.69838 6.43149 7.61051 6.33661 7.53789C6.2418 7.46545 6.11338 7.36069 5.95161 7.22383C5.78977 7.08718 5.69202 7.00491 5.65857 6.97703C4.49789 6.05626 3.37908 5.17191 2.30201 4.32356C1.48166 3.67633 1.07155 2.88386 1.07155 1.94635C1.07155 1.87387 1.09803 1.81104 1.15106 1.75809C1.2041 1.70506 1.26684 1.67852 1.33938 1.67852H13.6608C13.7054 1.70359 13.7445 1.71057 13.778 1.69949C13.8115 1.6882 13.8366 1.70919 13.8533 1.76217C13.87 1.81521 13.8854 1.84027 13.8993 1.83752C13.9133 1.8347 13.9217 1.86956 13.9245 1.94221C13.9271 2.01472 13.9285 2.05122 13.9285 2.05122V2.16406H13.9285Z" fill="#E34600"/>
</svg>
