<svg width="13" height="17" viewBox="0 0 13 17" fill="none" xmlns="http://www.w3.org/2000/svg">
<path d="M6.60314 0C2.96215 0 0 2.87395 0 6.40653C0 8.44381 1.761 11.4791 2.81069 13.107C3.50134 14.178 4.24352 15.1973 4.90044 15.977C5.95488 17.2286 6.33228 17.3333 6.60321 17.3333C6.87818 17.3333 7.2345 17.2285 8.28566 15.9763C8.94405 15.1919 9.68657 14.1731 10.3765 13.1078C11.4334 11.4759 13.2063 8.43521 13.2063 6.40647C13.2063 2.87395 10.2442 0 6.60314 0ZM9.6504 12.3166C8.29606 14.4494 7.05268 15.8907 6.59692 16.2586C6.1388 15.902 4.91559 14.495 3.54233 12.3233C1.9568 9.81561 1.04746 7.65903 1.04746 6.40653C1.04739 3.43428 3.53967 1.0162 6.60314 1.0162C9.6666 1.0162 12.1589 3.43428 12.1589 6.40653C12.159 7.65185 11.2446 9.80593 9.6504 12.3166Z" fill="#E34600"/>
</svg>
