<svg width="121" height="62" viewBox="0 0 121 62" fill="none" xmlns="http://www.w3.org/2000/svg">
<path d="M120.031 62H0V0H120.031V62ZM0.238976 61.761H119.793V0.238979H0.238976V61.761Z" fill="black"/>
<path d="M38.5628 10.3118H39.7383V35.7541H39.0252V11.2026H38.9543L28.1576 35.7541H27.3736L16.5769 11.2026H16.506V35.7541H15.793V10.3118H16.9684L27.7302 34.8273H27.8011L38.5628 10.3118Z" fill="black"/>
<path d="M45.4408 27.3814L42.0553 35.7553H41.2354L51.5687 10.313H52.4954L62.5441 35.7553H61.7602L58.4106 27.3814H45.4408ZM58.126 26.6684L52.068 11.0251H51.9971L45.7254 26.6684H58.126Z" fill="black"/>
<path d="M64.7892 26.739V35.7541H64.0762V10.3118H64.7892V25.7763L82.4279 10.3118H83.4965L71.2037 21.1444L84.2095 35.7541H83.2478L70.6335 21.5728L64.7892 26.739Z" fill="black"/>
<path d="M85.9191 22.8552V35.7541H85.2061V10.3118H85.9191V22.1421H103.736V10.3118H104.449V35.7541H103.736V22.8552H85.9191Z" fill="black"/>
<path d="M15.4268 43.9385H16.4342V47.1928H20.42V43.9385H21.4274V51.508H20.42V48.0409H16.4342V51.508H15.4268V43.9385Z" fill="black"/>
<path d="M29.6543 47.723C29.6543 47.2072 29.7301 46.7108 29.8826 46.2338C30.0341 45.7568 30.2624 45.3342 30.5665 44.967C30.8706 44.5998 31.2484 44.3064 31.7011 44.0869C32.1529 43.8683 32.6804 43.7585 33.2807 43.7585C33.8811 43.7585 34.4076 43.8683 34.8603 44.0869C35.312 44.3064 35.6909 44.5998 35.995 44.967C36.299 45.3342 36.5263 45.7568 36.6789 46.2338C36.8304 46.7108 36.9072 47.2072 36.9072 47.723C36.9072 48.2389 36.8314 48.7353 36.6789 49.2123C36.5263 49.6893 36.299 50.1118 35.995 50.479C35.6909 50.8463 35.313 51.1396 34.8603 51.3592C34.4076 51.5778 33.8811 51.6875 33.2807 51.6875C32.6804 51.6875 32.1529 51.5778 31.7011 51.3592C31.2484 51.1406 30.8706 50.8472 30.5665 50.479C30.2624 50.1118 30.0351 49.6893 29.8826 49.2123C29.7301 48.7353 29.6543 48.2389 29.6543 47.723ZM30.6607 47.723C30.6607 48.1048 30.7103 48.4808 30.8094 48.8519C30.9084 49.223 31.0639 49.5571 31.2756 49.8534C31.4874 50.1507 31.7594 50.3887 32.0917 50.5694C32.4239 50.7501 32.8193 50.8395 33.2788 50.8395C33.7383 50.8395 34.1337 50.7491 34.4659 50.5694C34.7981 50.3887 35.0701 50.1507 35.2819 49.8534C35.4937 49.5562 35.6491 49.223 35.7482 48.8519C35.8473 48.4808 35.8968 48.1048 35.8968 47.723C35.8968 47.3413 35.8473 46.9653 35.7482 46.5942C35.6491 46.2231 35.4937 45.8889 35.2819 45.5926C35.0701 45.2954 34.7981 45.0574 34.4659 44.8767C34.1337 44.696 33.7383 44.6066 33.2788 44.6066C32.8193 44.6066 32.4239 44.697 32.0917 44.8767C31.7594 45.0574 31.4874 45.2954 31.2756 45.5926C31.0639 45.8899 30.9084 46.2231 30.8094 46.5942C30.7103 46.9653 30.6607 47.3413 30.6607 47.723Z" fill="black"/>
<path d="M51.175 48.7724C51.175 49.7332 50.9156 50.4598 50.3959 50.9514C49.8762 51.4429 49.1427 51.6877 48.1965 51.6877C47.7089 51.6877 47.2727 51.6314 46.887 51.5177C46.5014 51.4051 46.1769 51.2282 45.9117 50.9873C45.6465 50.7474 45.4435 50.4433 45.3016 50.0751C45.1598 49.7079 45.0898 49.2727 45.0898 48.7714V43.9375H46.0972V48.7714C46.0972 49.4427 46.2789 49.9556 46.6432 50.3083C47.0075 50.6619 47.5243 50.8387 48.1965 50.8387C48.8397 50.8387 49.3293 50.6619 49.6644 50.3083C49.9996 49.9547 50.1676 49.4427 50.1676 48.7714V43.9375H51.175V48.7724Z" fill="black"/>
<path d="M64.1612 46.1544C64.1049 45.6104 63.9086 45.216 63.5725 44.9721C63.2364 44.7283 62.807 44.6069 62.2844 44.6069C62.0726 44.6069 61.8637 44.6282 61.6587 44.67C61.4538 44.7127 61.2721 44.7827 61.1128 44.8818C60.9535 44.9809 60.8262 45.113 60.731 45.2791C60.6358 45.4452 60.5882 45.6521 60.5882 45.8989C60.5882 46.132 60.6572 46.3215 60.7951 46.4662C60.9331 46.611 61.1167 46.7295 61.3469 46.8218C61.5762 46.9141 61.8365 46.9898 62.126 47.0501C62.4155 47.1103 62.7128 47.1754 63.0168 47.2463C63.3209 47.3172 63.6172 47.3998 63.9077 47.495C64.1972 47.5902 64.4556 47.7194 64.6819 47.8816C64.9083 48.0439 65.0899 48.2508 65.2279 48.5014C65.3658 48.752 65.4348 49.0619 65.4348 49.4291C65.4348 49.8323 65.3444 50.1762 65.1647 50.4628C64.984 50.7493 64.7528 50.9825 64.4701 51.1622C64.1874 51.3429 63.8707 51.475 63.521 51.5595C63.1713 51.6441 62.8225 51.6868 62.4767 51.6868C62.0532 51.6868 61.651 51.6334 61.2731 51.5275C60.8952 51.4216 60.563 51.2594 60.2764 51.0398C59.9898 50.8212 59.7634 50.5434 59.5983 50.2073C59.4322 49.8721 59.3496 49.4738 59.3496 49.0143H60.3036C60.3036 49.332 60.3657 49.6059 60.4891 49.8362C60.6125 50.0654 60.7757 50.2549 60.9768 50.4035C61.1779 50.5521 61.411 50.6619 61.6762 50.7319C61.9414 50.8028 62.2183 50.8377 62.5088 50.8377C62.7351 50.8377 62.9624 50.8164 63.1927 50.7746C63.4219 50.7319 63.6289 50.66 63.8125 50.557C63.9961 50.455 64.1447 50.3151 64.2574 50.1383C64.3701 49.9615 64.4274 49.7352 64.4274 49.4602C64.4274 49.1989 64.3584 48.9871 64.2205 48.8239C64.0825 48.6617 63.9009 48.5286 63.6745 48.4266C63.4482 48.3246 63.1907 48.2391 62.9003 48.1721C62.6108 48.1051 62.3135 48.04 62.0094 47.9759C61.7054 47.9117 61.4091 47.836 61.1186 47.7476C60.8291 47.6592 60.5688 47.5406 60.3395 47.392C60.1103 47.2434 59.9257 47.0569 59.7887 46.8305C59.6508 46.6042 59.5818 46.3186 59.5818 45.9717C59.5818 45.59 59.6595 45.2597 59.8149 44.9809C59.9704 44.7021 60.1773 44.4718 60.4347 44.2921C60.6922 44.1114 60.9855 43.9774 61.3149 43.889C61.6432 43.8005 61.9813 43.7568 62.3271 43.7568C62.7157 43.7568 63.0761 43.8025 63.4083 43.8948C63.7406 43.9871 64.0301 44.1318 64.2778 44.329C64.5255 44.5272 64.7227 44.7759 64.8713 45.0761C65.02 45.3762 65.1006 45.7347 65.1152 46.1524H64.1612V46.1544Z" fill="black"/>
<path d="M73.6914 43.9385H74.6988V51.508H73.6914V43.9385Z" fill="black"/>
<path d="M83.3818 43.9385H84.4524L88.4382 50.0771H88.4596V43.9385H89.4136V51.508H88.311L84.3572 45.4335H84.3358V51.508H83.3818V43.9385Z" fill="black"/>
<path d="M103.705 50.5645C103.556 50.7627 103.388 50.9317 103.201 51.0736C103.014 51.2154 102.815 51.332 102.602 51.4233C102.39 51.5146 102.171 51.5826 101.944 51.6244C101.718 51.6671 101.496 51.6885 101.277 51.6885C100.712 51.6885 100.206 51.5826 99.7605 51.3708C99.3156 51.1591 98.9367 50.8764 98.6258 50.5228C98.315 50.1692 98.0779 49.7631 97.9157 49.3036C97.7535 48.8441 97.6719 48.3671 97.6719 47.8726C97.6719 47.3218 97.7476 46.7963 97.9002 46.2979C98.0517 45.7996 98.2781 45.3634 98.5782 44.9884C98.8784 44.6134 99.2534 44.3152 99.7022 44.0927C100.151 43.8703 100.676 43.7585 101.277 43.7585C101.687 43.7585 102.074 43.8061 102.438 43.9013C102.802 43.9965 103.127 44.1471 103.413 44.3521C103.7 44.5571 103.94 44.8165 104.134 45.1312C104.328 45.446 104.46 45.8258 104.531 46.2707H103.524C103.474 45.988 103.382 45.7403 103.248 45.5285C103.114 45.3168 102.948 45.1438 102.75 45.0088C102.551 44.8747 102.327 44.7737 102.076 44.7067C101.826 44.6397 101.559 44.6056 101.276 44.6056C100.816 44.6056 100.422 44.6979 100.094 44.8815C99.7654 45.0651 99.4963 45.307 99.2884 45.6082C99.0795 45.9084 98.926 46.2513 98.8269 46.637C98.7278 47.0226 98.6783 47.4161 98.6783 47.8192C98.6783 48.2156 98.7346 48.5954 98.8483 48.9587C98.961 49.323 99.1271 49.6446 99.3467 49.9234C99.5652 50.2032 99.8363 50.4256 100.158 50.5917C100.479 50.7579 100.852 50.8404 101.276 50.8404C101.665 50.8404 102.012 50.7773 102.32 50.65C102.627 50.5228 102.888 50.3479 103.099 50.1254C103.311 49.903 103.469 49.6417 103.571 49.3405C103.674 49.0403 103.718 48.7168 103.704 48.37H101.287V47.5219H104.605V51.5078H103.969L103.705 50.5645Z" fill="black"/>
</svg>
