<svg width="37" height="16" viewBox="0 0 37 16" fill="none" xmlns="http://www.w3.org/2000/svg">
<path d="M1.86583 0.690954L1.87668 0.716266C2.04663 1.32013 1.58741 1.91315 0.958229 1.91315H0.947381C0.423067 1.91315 0 1.49008 0 0.969383V0.944071C0 0.423373 0.412219 0.0111539 0.932917 0.000306057C1.35598 -0.0105418 1.74289 0.267887 1.86583 0.690954ZM2.20212 4.40816V12.0234C2.20212 12.5441 1.77905 12.9671 1.25835 12.9671H0.954613C0.433915 12.9671 0.0108479 12.5441 0.0108479 12.0234V4.40816C0.0108479 3.88746 0.433915 3.46439 0.954613 3.46439H1.25835C1.77905 3.46439 2.20212 3.88746 2.20212 4.40816Z" fill="#3387FD"/>
<path d="M3.94531 12.4224V3.99718C3.94531 3.69344 4.18758 3.45117 4.49132 3.45117H5.20728C5.4604 3.45117 5.69182 3.63197 5.73883 3.8887C5.81115 4.28646 6.28484 4.45641 6.61027 4.21414C7.27561 3.70429 8.00242 3.45117 8.80154 3.45117C10.8699 3.45117 11.9113 4.62636 11.9113 6.96227V12.4079C11.9113 12.7116 11.669 12.9539 11.3653 12.9539H10.2515C9.9478 12.9539 9.70553 12.7116 9.70553 12.4079V6.96227C9.70553 5.91002 9.221 5.38933 8.26638 5.38933C7.62636 5.38933 6.98272 5.64244 6.36439 6.15229C6.2306 6.26077 6.15828 6.40541 6.15828 6.57536V12.4224C6.15828 12.7261 5.91601 12.9684 5.61227 12.9684H4.49855C4.18758 12.9648 3.94531 12.7225 3.94531 12.4224Z" fill="#3387FD"/>
<path d="M14.2579 1.9126H14.5363C14.8871 1.9126 15.1908 2.15487 15.2631 2.50561L15.3355 2.86721C15.4078 3.20711 15.7115 3.46023 16.0623 3.46023H16.9084C17.3206 3.46023 17.6605 3.80013 17.6605 4.21235V4.6101C17.6605 5.02232 17.3206 5.36222 16.9084 5.36222H16.4492C16.037 5.36222 15.6971 5.70212 15.6971 6.11434V9.73392C15.6971 10.6162 16.0478 11.0646 16.7493 11.0646H16.8939C17.3062 11.0646 17.6461 11.4045 17.6461 11.8167V12.2145C17.6461 12.6267 17.3062 12.9666 16.8939 12.9666H15.6826C14.2181 12.9666 13.4805 12.106 13.4805 10.3993V2.66472C13.5094 2.2525 13.8493 1.9126 14.2579 1.9126Z" fill="#3387FD"/>
<path d="M23.956 12.9431C24.1368 12.9322 24.2959 12.8454 24.4152 12.7116L25.4457 11.4533C25.6265 11.2219 25.4457 10.8856 25.1565 10.9326C24.5526 11.0158 23.9596 11.0519 23.3521 11.0519C22.0576 11.0519 21.2223 10.712 20.8571 10.0214C20.6148 9.57299 20.9656 9.04144 21.4609 9.04144H25.8182C26.1798 9.04144 26.4727 8.75217 26.4944 8.40142C26.5052 8.22062 26.5052 8.05067 26.5052 7.86987C26.5052 4.9301 25.1745 3.45117 22.524 3.45117C19.7868 3.45117 18.4199 4.9988 18.4199 8.09768C18.4199 11.3412 20.0073 12.9648 23.1785 12.9648C23.4461 12.9648 23.7028 12.9539 23.956 12.9431ZM22.5277 5.3387C23.7498 5.3387 24.3537 5.99319 24.3537 7.31302V7.38534H21.4356C20.9764 7.38534 20.6365 6.92611 20.7956 6.50304C21.074 5.72923 21.6417 5.3387 22.5277 5.3387Z" fill="#3387FD"/>
<path d="M29.4269 7.87826L26.715 4.25869C26.4727 3.93325 26.7041 3.45956 27.1127 3.45956H27.901C28.447 3.45956 28.9532 3.71268 29.2823 4.15021L30.566 5.86779C30.7721 6.13537 31.1698 6.13537 31.3651 5.86779L33.9071 2.46517C34.4278 1.77452 35.2522 1.3623 36.1092 1.3623H36.3515C36.7637 1.3623 36.9915 1.836 36.7493 2.16143L32.5005 7.87465C32.3667 8.05544 32.3667 8.29771 32.5005 8.46766L35.2016 12.0872C35.4439 12.4127 35.2125 12.8864 34.8039 12.8864H34.7315C33.7372 12.8864 32.7934 12.4127 32.2004 11.6172L31.3506 10.4818C31.1445 10.2142 30.7468 10.2142 30.5515 10.4818L28.7471 12.89L27.2212 14.8028C26.6282 15.5296 25.7567 15.9635 24.8238 15.9997C24.4008 16.0106 24.1585 15.5405 24.4116 15.2006L29.4342 8.48213C29.5607 8.30494 29.5607 8.04821 29.4269 7.87826Z" fill="#3387FE"/>
<path d="M36.3733 1.37158H36.131C35.2596 1.37158 34.4496 1.7838 33.9289 2.47445L31.3869 5.87707C31.0253 6.28928 30.6348 5.92407 30.6348 5.92407L32.7537 8.76983L32.5368 8.48056C32.403 8.29976 32.403 8.05749 32.5368 7.88754L36.7855 2.17432C37.0169 1.84527 36.7855 1.37158 36.3733 1.37158Z" fill="#1DC3FC"/>
</svg>
