<svg width="140" height="72" viewBox="0 0 140 72" fill="none" xmlns="http://www.w3.org/2000/svg">
<path d="M139.39 72H0V0H139.39V72ZM0.277521 71.7225H139.114V0.277524H0.277521V71.7225Z" fill="white"/>
<path d="M44.7842 11.9756H46.1493V41.5215H45.3212V13.0101H45.2388L32.7007 41.5215H31.7903L19.2522 13.0101H19.1698V41.5215H18.3418V11.9756H19.7068L32.2043 40.4453H32.2867L44.7842 11.9756Z" fill="white"/>
<path d="M52.7714 31.7982L48.8398 41.5227H47.8877L59.8877 11.9768H60.9639L72.6334 41.5227H71.723L67.8332 31.7982H52.7714ZM67.5026 30.9701L60.4676 12.8037H60.3852L53.1019 30.9701H67.5026Z" fill="white"/>
<path d="M75.2402 31.0524V41.5215H74.4121V11.9756H75.2402V29.9344L95.7237 11.9756H96.9647L82.6893 24.5554L97.7928 41.5215H96.6759L82.027 25.053L75.2402 31.0524Z" fill="white"/>
<path d="M99.7782 26.5421V41.5215H98.9502V11.9756H99.7782V25.714H120.468V11.9756H121.296V41.5215H120.468V26.5421H99.7782Z" fill="white"/>
<path d="M17.915 51.0242H19.0849V54.8034H23.7137V51.0242H24.8835V59.8146H23.7137V55.7883H19.0849V59.8146H17.915V51.0242Z" fill="white"/>
<path d="M34.4365 55.4196C34.4365 54.8206 34.5245 54.2441 34.7016 53.6902C34.8776 53.1363 35.1427 52.6455 35.4958 52.2191C35.849 51.7926 36.2878 51.4519 36.8135 51.197C37.3381 50.9432 37.9507 50.8157 38.6479 50.8157C39.3451 50.8157 39.9565 50.9432 40.4822 51.197C41.0068 51.4519 41.4468 51.7926 41.7999 52.2191C42.153 52.6455 42.417 53.1363 42.5941 53.6902C42.7701 54.2441 42.8592 54.8206 42.8592 55.4196C42.8592 56.0186 42.7712 56.5951 42.5941 57.149C42.417 57.7029 42.153 58.1937 41.7999 58.6201C41.4468 59.0466 41.0079 59.3873 40.4822 59.6422C39.9565 59.8961 39.3451 60.0235 38.6479 60.0235C37.9507 60.0235 37.3381 59.8961 36.8135 59.6422C36.2878 59.3884 35.849 59.0477 35.4958 58.6201C35.1427 58.1937 34.8788 57.7029 34.7016 57.149C34.5245 56.5951 34.4365 56.0186 34.4365 55.4196ZM35.6053 55.4196C35.6053 55.863 35.6628 56.2995 35.7779 56.7305C35.893 57.1614 36.0735 57.5495 36.3194 57.8936C36.5653 58.2388 36.8812 58.5152 37.267 58.725C37.6528 58.9349 38.112 59.0387 38.6456 59.0387C39.1792 59.0387 39.6384 58.9338 40.0242 58.725C40.41 58.5152 40.7259 58.2388 40.9718 57.8936C41.2178 57.5484 41.3983 57.1614 41.5133 56.7305C41.6284 56.2995 41.6859 55.863 41.6859 55.4196C41.6859 54.9762 41.6284 54.5397 41.5133 54.1087C41.3983 53.6778 41.2178 53.2897 40.9718 52.9456C40.7259 52.6004 40.41 52.324 40.0242 52.1142C39.6384 51.9043 39.1792 51.8005 38.6456 51.8005C38.112 51.8005 37.6528 51.9055 37.267 52.1142C36.8812 52.324 36.5653 52.6004 36.3194 52.9456C36.0735 53.2908 35.893 53.6778 35.7779 54.1087C35.6628 54.5397 35.6053 54.9762 35.6053 55.4196Z" fill="white"/>
<path d="M59.428 56.6377C59.428 57.7534 59.1268 58.5973 58.5232 59.1681C57.9197 59.7389 57.0679 60.0232 55.9691 60.0232C55.4028 60.0232 54.8963 59.9578 54.4484 59.8258C54.0005 59.6949 53.6237 59.4896 53.3157 59.2098C53.0078 58.9312 52.772 58.5781 52.6073 58.1505C52.4426 57.7241 52.3613 57.2187 52.3613 56.6366V51.0229H53.5312V56.6366C53.5312 57.4161 53.7422 58.0118 54.1652 58.4213C54.5883 58.8319 55.1884 59.0372 55.9691 59.0372C56.7159 59.0372 57.2845 58.8319 57.6737 58.4213C58.0629 58.0106 58.2581 57.4161 58.2581 56.6366V51.0229H59.428V56.6377Z" fill="white"/>
<path d="M74.5086 53.5975C74.4431 52.9657 74.2152 52.5077 73.8249 52.2245C73.4346 51.9414 72.9359 51.8004 72.329 51.8004C72.0831 51.8004 71.8405 51.8252 71.6025 51.8737C71.3644 51.9233 71.1535 52.0045 70.9685 52.1196C70.7834 52.2347 70.6357 52.3881 70.5251 52.581C70.4145 52.7739 70.3593 53.0142 70.3593 53.3008C70.3593 53.5715 70.4394 53.7915 70.5996 53.9596C70.7598 54.1277 70.973 54.2653 71.2403 54.3725C71.5066 54.4797 71.8089 54.5677 72.1451 54.6376C72.4813 54.7076 72.8265 54.7831 73.1796 54.8655C73.5327 54.9479 73.8768 55.0437 74.2141 55.1543C74.5503 55.2649 74.8504 55.4149 75.1132 55.6033C75.3761 55.7917 75.5871 56.032 75.7473 56.3231C75.9075 56.6141 75.9876 56.974 75.9876 57.4004C75.9876 57.8686 75.8826 58.268 75.6739 58.6008C75.4641 58.9336 75.1956 59.2043 74.8673 59.413C74.539 59.6229 74.1713 59.7763 73.7651 59.8744C73.359 59.9726 72.954 60.0222 72.5524 60.0222C72.0605 60.0222 71.5935 59.9602 71.1546 59.8372C70.7158 59.7142 70.3299 59.5258 69.9971 59.2709C69.6643 59.017 69.4015 58.6944 69.2097 58.3041C69.0168 57.9149 68.9209 57.4523 68.9209 56.9187H70.0287C70.0287 57.2876 70.1009 57.6057 70.2442 57.8731C70.3875 58.1394 70.577 58.3593 70.8105 58.5319C71.0441 58.7046 71.3148 58.832 71.6228 58.9133C71.9308 58.9956 72.2523 59.0362 72.5896 59.0362C72.8525 59.0362 73.1164 59.0114 73.3838 58.9629C73.6501 58.9133 73.8903 58.8298 74.1036 58.7102C74.3168 58.5917 74.4894 58.4293 74.6202 58.224C74.7511 58.0186 74.8177 57.7558 74.8177 57.4365C74.8177 57.1331 74.7376 56.8871 74.5774 56.6976C74.4172 56.5092 74.2062 56.3546 73.9434 56.2362C73.6805 56.1177 73.3816 56.0185 73.0442 55.9406C72.7081 55.8628 72.3628 55.7872 72.0097 55.7127C71.6566 55.6383 71.3125 55.5503 70.9752 55.4476C70.639 55.345 70.3367 55.2073 70.0705 55.0347C69.8042 54.8621 69.5899 54.6455 69.4308 54.3827C69.2706 54.1198 69.1905 53.7881 69.1905 53.3854C69.1905 52.942 69.2808 52.5585 69.4613 52.2347C69.6418 51.9109 69.8821 51.6435 70.181 51.4348C70.48 51.225 70.8207 51.0693 71.2031 50.9667C71.5844 50.864 71.977 50.8132 72.3786 50.8132C72.8299 50.8132 73.2484 50.8663 73.6343 50.9734C74.0201 51.0806 74.3563 51.2487 74.6439 51.4777C74.9316 51.7078 75.1606 51.9967 75.3332 52.3452C75.5058 52.6938 75.5995 53.1101 75.6164 53.5952H74.5086V53.5975Z" fill="white"/>
<path d="M85.5771 51.0242H86.747V59.8146H85.5771V51.0242Z" fill="white"/>
<path d="M96.8291 51.0242H98.0723L102.701 58.1529H102.726V51.0242H103.834V59.8146H102.553L97.9617 52.7604H97.9369V59.8146H96.8291V51.0242Z" fill="white"/>
<path d="M120.43 58.7194C120.257 58.9495 120.062 59.1458 119.845 59.3105C119.627 59.4753 119.396 59.6106 119.149 59.7167C118.903 59.8227 118.648 59.9017 118.385 59.9502C118.123 59.9998 117.864 60.0247 117.61 60.0247C116.954 60.0247 116.367 59.9017 115.849 59.6558C115.333 59.4098 114.893 59.0815 114.532 58.6709C114.171 58.2603 113.895 57.7887 113.707 57.2551C113.519 56.7215 113.424 56.1676 113.424 55.5933C113.424 54.9537 113.512 54.3434 113.689 53.7646C113.865 53.1859 114.128 52.6794 114.476 52.2439C114.825 51.8084 115.26 51.4621 115.782 51.2038C116.303 50.9454 116.912 50.8157 117.61 50.8157C118.086 50.8157 118.535 50.8709 118.958 50.9815C119.382 51.0921 119.758 51.2669 120.091 51.505C120.424 51.743 120.703 52.0442 120.928 52.4097C121.154 52.7752 121.307 53.2163 121.39 53.733H120.22C120.162 53.4047 120.055 53.1171 119.899 52.8711C119.744 52.6252 119.551 52.4244 119.321 52.2676C119.09 52.1119 118.83 51.9946 118.539 51.9167C118.248 51.8389 117.938 51.7994 117.609 51.7994C117.076 51.7994 116.618 51.9066 116.236 52.1198C115.855 52.333 115.542 52.6139 115.301 52.9636C115.059 53.3122 114.88 53.7105 114.765 54.1583C114.65 54.6062 114.593 55.0631 114.593 55.5313C114.593 55.9916 114.658 56.4327 114.79 56.8546C114.921 57.2776 115.114 57.6511 115.369 57.9748C115.623 58.2997 115.937 58.5581 116.311 58.751C116.684 58.9439 117.117 59.0398 117.609 59.0398C118.06 59.0398 118.464 58.9665 118.822 58.8187C119.178 58.6709 119.481 58.4678 119.727 58.2095C119.973 57.9511 120.155 57.6477 120.275 57.2979C120.393 56.9494 120.445 56.5737 120.428 56.1709H117.622V55.1861H121.475V59.8148H120.736L120.43 58.7194Z" fill="white"/>
</svg>
