<svg width="4" height="4" viewBox="0 0 4 4" fill="none" xmlns="http://www.w3.org/2000/svg">
<path d="M2 2.08333L2.33333 4H1.66667L2 2.08333ZM1.94125 2.05875L0.821667 3.65L0.35 3.17833L1.94125 2.05875ZM2.05875 2.05875L3.65 3.17833L3.17833 3.65L2.05875 2.05875ZM0 1.66667L1.91667 2L0 2.33333V1.66667ZM4 1.66667V2.33333L2.08333 2L4 1.66667ZM3.17833 0.35L3.65 0.821667L2.05875 1.94125L3.17833 0.35ZM0.821667 0.35L1.94125 1.94083L0.35 0.821667L0.821667 0.35ZM2.33333 0L2 1.91667L1.66667 0H2.33333Z" fill="#E34600"/>
</svg>
